HIERARCHY
ROOT Hips
{
	OFFSET 0.000000 0.000000 0.000000
	CHANNELS 6 Xposition Yposition Zposition Xrotation Yrotation Zrotation
	JOINT LeftUpLeg_virtual
	{
		OFFSET 0.000000 0.000000 0.000000
		CHANNELS 3 Xrotation Yrotation Zrotation
		JOINT LeftUpLeg
		{
			OFFSET 10.205400 -3.823500 0.155100
			CHANNELS 3 Xrotation Yrotation Zrotation
			JOINT LeftLeg
			{
				OFFSET 0.708757 -12.982077 0.567790
				CHANNELS 3 Xrotation Yrotation Zrotation
				JOINT LeftFoot
				{
					OFFSET -0.708756 -10.717838 -2.184338
					CHANNELS 3 Xrotation Yrotation Zrotation
					JOINT LeftToeBase
					{
						OFFSET 0.108149 -7.191104 7.560241
						CHANNELS 3 Xrotation Yrotation Zrotation
						JOINT LeftToe_End
						{
							OFFSET 0.070230 0.081724 4.490308
							CHANNELS 3 Xrotation Yrotation Zrotation
							End Site
							{
								OFFSET 0 0 0
							}
						}
					}
				}
			}
		}
	}
	JOINT RightUpLeg_virtual
	{
		OFFSET 0.000000 0.000000 0.000000
		CHANNELS 3 Xrotation Yrotation Zrotation
		JOINT RightUpLeg
		{
			OFFSET -10.205400 -3.823500 0.005500
			CHANNELS 3 Xrotation Yrotation Zrotation
			JOINT RightLeg
			{
				OFFSET -0.708756 -12.982134 0.610632
				CHANNELS 3 Xrotation Yrotation Zrotation
				JOINT RightFoot
				{
					OFFSET 0.708754 -10.717769 -1.945823
					CHANNELS 3 Xrotation Yrotation Zrotation
					JOINT RightToeBase
					{
						OFFSET -0.108140 -7.191069 7.372968
						CHANNELS 3 Xrotation Yrotation Zrotation
						JOINT RightToe_End
						{
							OFFSET -0.070227 0.081735 4.479403
							CHANNELS 3 Xrotation Yrotation Zrotation
							End Site
							{
								OFFSET 0 0 0
							}
						}
					}
				}
			}
		}
	}
	JOINT Spine_virtual
	{
		OFFSET 0.000000 0.000000 0.000000
		CHANNELS 3 Xrotation Yrotation Zrotation
		JOINT Spine
		{
			OFFSET 0.000000 6.876099 0.125700
			CHANNELS 3 Xrotation Yrotation Zrotation
			JOINT Spine1
			{
				OFFSET 0.000000 5.730043 0.104720
				CHANNELS 3 Xrotation Yrotation Zrotation
				JOINT Spine1_split
				{
					OFFSET 0.000000 5.730043 0.104720
					CHANNELS 3 Xrotation Yrotation Zrotation
					JOINT Spine2
					{
						OFFSET 0.000000 5.730043 0.104720
						CHANNELS 3 Xrotation Yrotation Zrotation
						JOINT Neck_virtual
						{
							OFFSET 0.000000 0.000000 0.000000
							CHANNELS 3 Xrotation Yrotation Zrotation
							JOINT Neck
							{
								OFFSET 0.000000 10.314075 0.188496
								CHANNELS 3 Xrotation Yrotation Zrotation
								JOINT Head
								{
									OFFSET 0.000000 7.643700 -2.377400
									CHANNELS 3 Xrotation Yrotation Zrotation
									JOINT HeadTop_End
									{
										OFFSET 0.000000 43.788605 -13.619600
										CHANNELS 3 Xrotation Yrotation Zrotation
										End Site
										{
											OFFSET 0 0 0
										}
									}
								}
							}
						}
						JOINT LeftShoulder_virtual
						{
							OFFSET 0.000000 0.000000 0.000000
							CHANNELS 3 Xrotation Yrotation Zrotation
							JOINT LeftShoulder
							{
								OFFSET 2.196100 4.412489 0.087492
								CHANNELS 3 Xrotation Yrotation Zrotation
								JOINT LeftShoulder_split
								{
									OFFSET 2.196100 4.412489 0.087492
									CHANNELS 3 Xrotation Yrotation Zrotation
									JOINT LeftArm
									{
										OFFSET 8.771219 -2.981674 -0.026999
										CHANNELS 3 Xrotation Yrotation Zrotation
										JOINT LeftForeArm
										{
											OFFSET 8.512804 0.000000 -0.000000
											CHANNELS 3 Xrotation Yrotation Zrotation
											JOINT LeftHand
											{
												OFFSET 18.484802 0.000000 -0.000000
												CHANNELS 3 Xrotation Yrotation Zrotation
												End Site
												{
													OFFSET 0 0 0
												}
											}
										}
									}
								}
							}
						}
						JOINT RightShoulder_virtual
						{
							OFFSET 0.000000 0.000000 0.000000
							CHANNELS 3 Xrotation Yrotation Zrotation
							JOINT RightShoulder
							{
								OFFSET -2.196100 4.412496 0.070690
								CHANNELS 3 Xrotation Yrotation Zrotation
								JOINT RightShoulder_split
								{
									OFFSET -2.196100 4.412496 0.070690
									CHANNELS 3 Xrotation Yrotation Zrotation
									JOINT RightArm
									{
										OFFSET -8.771282 -2.981682 -0.094208
										CHANNELS 3 Xrotation Yrotation Zrotation
										JOINT RightForeArm
										{
											OFFSET -8.494598 0.000000 0.000000
											CHANNELS 3 Xrotation Yrotation Zrotation
											JOINT RightHand
											{
												OFFSET -18.483803 0.000000 0.000001
												CHANNELS 3 Xrotation Yrotation Zrotation
												End Site
												{
													OFFSET 0 0 0
												}
											}
										}
									}
								}
							}
						}
					}
				}
			}
		}
	}
}
MOTION
Frames: 5
Frame Time: 0.03333333
-0.851840 22.795357 -34.385757 0.000000 0.000000 0.000000 37.207701 -69.874830 29.923083 -65.895213 -33.257912 38.716152 47.696321 -15.356022 8.110295 18.184562 0.142705 -32.883440 -8.986007 0.000014 0.000002 0.000000 0.000000 0.000000 37.207701 -69.874830 29.923083 1.232752 -1.041975 -39.764781 34.537118 3.556123 -4.512061 -10.731384 -37.606021 48.895535 -2.393395 0.000039 0.000004 0.000000 0.000000 0.000000 37.207701 -69.874830 29.923083 0.917707 11.888100 -4.471026 -1.467009 7.682359 -3.047189 0.000000 0.000000 0.000000 0.000000 0.000000 0.000000 -1.482609 3.090851 1.162858 13.645826 4.837669 -4.250174 2.800511 15.085521 7.206369 0.000000 0.000000 0.000000 -1.482609 3.090851 1.162858 4.004425 5.439219 -12.961425 0.000000 0.000000 0.000000 -56.010533 -35.589216 -51.025461 -0.000014 -82.017704 -0.000005 0.000000 0.000000 0.000000 -1.482609 3.090851 1.162858 -14.388975 3.880224 -3.771200 0.000000 0.000000 0.000000 -98.939771 39.793471 121.270856 0.000005 35.519825 0.000002 0.000000 0.000000 0.000000 
-0.589187 23.732834 -37.175560 0.000000 0.000000 0.000000 35.936590 -69.196387 28.366698 -67.465788 -31.949241 34.662947 43.589301 -11.344976 8.543929 25.982422 -0.435337 -23.838187 -2.955688 0.020801 -1.171155 0.000000 0.000000 0.000000 35.936590 -69.196387 28.366698 -3.728936 0.150687 -35.508244 43.745060 3.842401 -0.359113 -20.070219 -37.713952 44.493170 -1.798172 0.000040 0.000012 0.000000 0.000000 0.000000 35.936590 -69.196387 28.366698 0.773124 9.967872 -3.477559 -1.602555 6.808479 -2.710777 0.000000 0.000000 0.000000 0.000000 0.000000 0.000000 -1.615871 2.233985 1.483571 13.856780 5.273891 -5.005346 3.706267 16.403034 6.692198 0.000000 0.000000 0.000000 -1.615871 2.233985 1.483571 4.053407 5.979544 -12.991208 0.000000 0.000000 0.000000 -54.011609 -35.171666 -50.958556 -0.000043 -82.344754 -0.000032 0.000000 0.000000 0.000000 -1.615871 2.233985 1.483571 -14.532544 3.553467 -4.417818 0.000000 0.000000 0.000000 -100.457780 41.260920 122.940263 -0.000007 34.452936 -0.000005 0.000000 0.000000 0.000000 
-0.280694 24.552784 -39.841652 0.000000 0.000000 0.000000 33.640884 -67.287991 24.994855 -73.041312 -28.297655 29.138280 40.829187 -9.445285 8.876241 30.550374 -2.027081 -19.894529 -1.593474 0.051916 -1.865437 0.000000 0.000000 0.000000 33.640884 -67.287991 24.994855 -7.448898 -2.452956 -31.432264 48.436310 1.610938 5.250759 -27.019363 -32.669225 40.709468 -1.156786 0.000022 0.000010 0.000000 0.000000 0.000000 33.640884 -67.287991 24.994855 0.695157 7.905321 -1.614886 -1.619452 5.518456 -2.231736 0.000000 0.000000 0.000000 0.000000 0.000000 0.000000 -1.616519 0.925559 1.956718 13.288393 5.956522 -5.383665 2.808266 18.062147 6.550446 0.000000 0.000000 0.000000 -1.616519 0.925559 1.956718 3.900271 5.904394 -12.522565 0.000000 0.000000 0.000000 -52.948706 -33.982824 -50.979869 -0.000040 -82.394088 -0.000013 0.000000 0.000000 0.000000 -1.616519 0.925559 1.956718 -14.701917 3.010204 -5.023177 0.000000 0.000000 0.000000 -104.458871 42.452286 125.685371 -0.000014 31.733168 0.000004 0.000000 0.000000 0.000000 
-0.088355 25.594772 -42.217667 0.000000 0.000000 0.000000 32.804261 -65.764463 23.169612 -79.896643 -23.565177 22.690519 45.859608 -8.972958 7.922279 28.985772 -2.870454 -19.512254 -2.096188 0.091096 -2.486941 0.000000 0.000000 0.000000 32.804261 -65.764463 23.169612 -12.173870 -6.492782 -25.322443 52.761046 0.942767 5.665030 -32.255674 -30.298084 33.240639 -1.187172 0.000026 0.000001 0.000000 0.000000 0.000000 32.804261 -65.764463 23.169612 0.757359 6.573946 -0.205319 -1.589166 4.608917 -2.015177 0.000000 0.000000 0.000000 0.000000 0.000000 0.000000 -1.578582 -0.026337 2.171801 12.586905 6.539986 -5.118965 0.875519 19.378953 7.162000 0.000000 0.000000 0.000000 -1.578582 -0.026337 2.171801 3.662906 5.270444 -11.900314 0.000000 0.000000 0.000000 -53.075423 -32.931098 -50.693527 -0.000043 -82.372109 -0.000010 0.000000 0.000000 0.000000 -1.578582 -0.026337 2.171801 -14.769625 2.520837 -5.024786 0.000000 0.000000 0.000000 -107.407102 42.298996 127.414256 -0.000007 29.536678 -0.000008 0.000000 0.000000 0.000000 
0.062132 27.008938 -44.700081 0.000000 0.000000 0.000000 35.172206 -65.288098 25.007187 -85.358759 -17.663510 17.518851 53.747582 -11.302025 4.341464 25.071179 -2.786902 -19.373447 -0.751141 0.011955 -0.913273 0.000000 0.000000 0.000000 35.172206 -65.288098 25.007187 -16.954152 -9.333354 -18.343518 53.414429 -0.233671 5.343074 -34.733182 -28.368737 24.865444 -1.117506 -0.000001 -0.000006 0.000000 0.000000 0.000000 35.172206 -65.288098 25.007187 0.748678 6.162174 -0.062102 -1.588673 4.492978 -2.192219 0.000000 0.000000 0.000000 0.000000 0.000000 0.000000 -1.597447 -0.195591 1.993552 12.118096 6.829904 -4.433337 -0.737346 20.027397 8.229673 0.000000 0.000000 0.000000 -1.597447 -0.195591 1.993552 3.544252 4.756018 -11.622947 0.000000 0.000000 0.000000 -54.038835 -33.116428 -50.381552 0.000009 -81.882357 -0.000043 0.000000 0.000000 0.000000 -1.597447 -0.195591 1.993552 -14.733700 2.115985 -4.463097 0.000000 0.000000 0.000000 -107.662455 41.165980 127.346487 0.000004 29.080709 0.000006 0.000000 0.000000 0.000000 
